<?xml version="1.0" encoding="UTF-8" standalone="no"?>
<!-- Generator: Adobe Illustrator 19.2.1, SVG Export Plug-In . SVG Version: 6.00 Build 0)  -->

<svg
   version="1.1"
   id="Layer_1"
   x="0px"
   y="0px"
   viewBox="0 0 2500 2499.9999"
   xml:space="preserve"
   sodipodi:docname="corel-draw-x8.svg"
   width="2500"
   height="2500"
   inkscape:version="1.1 (c68e22c387, 2021-05-23)"
   xmlns:inkscape="http://www.inkscape.org/namespaces/inkscape"
   xmlns:sodipodi="http://sodipodi.sourceforge.net/DTD/sodipodi-0.dtd"
   xmlns="http://www.w3.org/2000/svg"
   xmlns:svg="http://www.w3.org/2000/svg"><defs
   id="defs71" /><sodipodi:namedview
   id="namedview69"
   pagecolor="#ffffff"
   bordercolor="#666666"
   borderopacity="1.0"
   inkscape:pageshadow="2"
   inkscape:pageopacity="0.0"
   inkscape:pagecheckerboard="0"
   showgrid="false"
   height="2500px"
   inkscape:zoom="0.20579735"
   inkscape:cx="585.52746"
   inkscape:cy="1139.4704"
   inkscape:window-width="1920"
   inkscape:window-height="1009"
   inkscape:window-x="1358"
   inkscape:window-y="-8"
   inkscape:window-maximized="1"
   inkscape:current-layer="Layer_1" />
<style
   type="text/css"
   id="style2">
	.st0{fill:#979797;}
	.st1{fill:#61A706;}
	.st2{fill-rule:evenodd;clip-rule:evenodd;fill:#61A706;}
	.st3{fill-rule:evenodd;clip-rule:evenodd;fill:#979797;}
</style>
<g
   id="g66"
   transform="translate(-338.9233,-6.5999931)"
   style="fill:#61a706;fill-opacity:1">
	
	
	
	
	
	
	
	
	
	
	
	
	
	
	
	
	
	
	
	
	
	
	
	
	
	<polygon
   class="st2"
   points="1110.3,1369.1 1143.2,1500.7 1301.2,1500.7 1331.9,1366.9 "
   id="polygon54"
   transform="matrix(1.6732481,0,0,1.6732481,-460.97298,-4.4434375)"
   style="fill:#61a706;fill-opacity:1" />
	<path
   class="st3"
   d="m 1534.71,2130.6211 10.0395,31.1225 6.3584,13.8879 63.7507,0.3347 7.5296,-3.6812 9.2029,-21.7522 c 39.3213,-101.2315 142.5607,-533.2642 163.9783,-643.5312 58.2291,-299.1768 101.9008,-604.04259 80.6506,-909.57769 -8.0316,-115.45412 -29.7838,-244.46155 -72.9536,-352.38605 -32.963,-82.82579 -82.4912,-177.698954 -169.6674,-214.510412 -94.7058,-39.9906298 -186.0652,57.05776 -226.8924,135.700422 -216.6857,417.4754 -78.3081,1137.47403 22.9235,1564.31963 l 34.1342,146.4092 c 22.4215,84.8337 47.8549,160.1299 70.9457,253.6644 z"
   id="path56"
   style="stroke-width:1.67325;fill:#61a706;fill-opacity:1" />
	<path
   class="st3"
   d="m 1507.6034,2151.7041 -37.6481,-30.9551 C 1020.1862,1698.4212 403.42699,278.50282 1375.5841,16.639489 1415.2401,5.9307008 1407.0412,8.4405729 1445.3586,6.6 681.52083,335.7279 1196.8812,1618.9419 1507.6034,2151.7041 Z"
   id="path58"
   style="stroke-width:1.67325;fill:#61a706;fill-opacity:1" />
	<path
   class="st3"
   d="m 1670.2431,2151.7041 37.6481,-30.9551 C 2157.6603,1698.4212 2774.4196,278.50282 1802.2624,16.639489 1762.6064,5.9307008 1770.8053,8.4405729 1732.488,6.6 c 763.8377,329.1279 248.6446,1612.3419 -62.2449,2145.1041 z"
   id="path60"
   style="stroke-width:1.67325;fill:#61a706;fill-opacity:1" />
	<path
   class="st3"
   d="M 1061.8501,119.37692 C 870.59786,208.39372 723.68668,401.65388 692.06229,611.31187 l -7.36229,89.0168 0.83662,71.61502 10.03949,78.97731 5.52172,37.64808 C 776.394,1303.0326 1120.7485,1846.3363 1423.7737,2134.3023 1004.7924,1575.2701 372.4719,690.95848 1061.8501,119.37692 Z"
   id="path62"
   style="stroke-width:1.67325;fill:#61a706;fill-opacity:1" />
	<path
   class="st3"
   d="m 2115.9964,119.37692 c 191.2523,89.0168 338.1635,282.27696 369.7879,491.93495 l 7.3623,89.0168 -1.004,71.61502 -10.0395,78.97731 -5.5217,37.64808 C 2401.2852,1303.0326 2056.9308,1846.3363 1753.9055,2134.3023 2173.0542,1575.2701 2805.3747,690.95848 2115.9964,119.37692 Z"
   id="path64"
   style="stroke-width:1.67325;fill:#61a706;fill-opacity:1" />
</g>
</svg>
