<?xml version="1.0" encoding="UTF-8" standalone="no"?>
<svg
   width="2500"
   height="2500"
   viewBox="0 0 256 255.92055"
   preserveAspectRatio="xMinYMin meet"
   version="1.1"
   id="svg8"
   sodipodi:docname="php-1.svg"
   inkscape:version="1.1 (c68e22c387, 2021-05-23)"
   xmlns:inkscape="http://www.inkscape.org/namespaces/inkscape"
   xmlns:sodipodi="http://sodipodi.sourceforge.net/DTD/sodipodi-0.dtd"
   xmlns="http://www.w3.org/2000/svg"
   xmlns:svg="http://www.w3.org/2000/svg">
  <defs
     id="defs12" />
  <sodipodi:namedview
     id="namedview10"
     pagecolor="#ffffff"
     bordercolor="#666666"
     borderopacity="1.0"
     inkscape:pageshadow="2"
     inkscape:pageopacity="0.0"
     inkscape:pagecheckerboard="0"
     showgrid="false"
     height="2500px"
     inkscape:zoom="0.17952636"
     inkscape:cx="548.66596"
     inkscape:cy="1172.5298"
     inkscape:window-width="1366"
     inkscape:window-height="697"
     inkscape:window-x="-8"
     inkscape:window-y="-8"
     inkscape:window-maximized="1"
     inkscape:current-layer="g6" />
  <g
     fill-rule="evenodd"
     id="g6">
    <ellipse
       fill="#8993be"
       cx="128"
       cy="128"
       rx="128"
       ry="66.629997"
       id="ellipse2" />
    <path
       d="m 35.5065,172.712 14.028,-71.014 h 32.437 c 14.027,0.877 21.041,7.89 21.041,20.165 0,21.041 -16.657,33.315 -31.562,32.438 h -15.779 l -3.507,18.411 z m 23.671,-31.561 4.384,-26.302 h 11.397 c 6.137,0 10.52,2.63 10.52,7.89 -0.876,14.905 -7.89,17.535 -15.78,18.412 h -10.52 z m 40.576,13.15 14.027,-71.013 h 16.658 l -3.507,18.41 h 15.78 c 14.028,0.877 19.288,7.89 17.535,16.658 l -6.137,35.945 h -17.534 l 6.137,-32.438 c 0.876,-4.384 0.876,-7.014 -5.26,-7.014 h -13.151 l -7.89,39.452 z m 53.233,18.411 14.027,-71.014 h 32.438 c 14.028,0.877 21.042,7.89 21.042,20.165 0,21.041 -16.658,33.315 -31.562,32.438 h -15.781 l -3.507,18.411 z m 23.67,-31.561 4.384,-26.302 h 11.398 c 6.137,0 10.52,2.63 10.52,7.89 -0.876,14.905 -7.89,17.535 -15.78,18.412 h -10.521 z"
       fill="#232531"
       id="path4" />
  </g>
</svg>
